<svg width="48" height="48" viewBox="0 0 48 48" fill="none" xmlns="http://www.w3.org/2000/svg">
<rect width="48" height="48" fill="#DBF4A9"/>
<g clip-path="url(#clip0_13907_10792)">
<path d="M13.127 14.7305C13.127 12.1933 15.248 10.0723 17.7851 10.0723C25.6292 10.0723 22.7958 25.5985 22.4433 29.291" stroke="#2E8361" stroke-width="2" stroke-linecap="round" stroke-linejoin="round"/>
<path d="M29.4307 10.0723C37.2749 10.0723 34.4414 25.5985 34.0889 29.291" stroke="#2E8361" stroke-width="2" stroke-linecap="round" stroke-linejoin="round"/>
<path d="M23.2285 19.389C27.171 18.6985 30.9314 18.6985 34.874 19.389" stroke="#2E8361" stroke-width="2" stroke-linecap="round" stroke-linejoin="round"/>
<path d="M22.7842 26.3753C26.7267 25.6848 30.4871 25.6848 34.4297 26.3753" stroke="#2E8361" stroke-width="2" stroke-linecap="round" stroke-linejoin="round"/>
<path d="M10.0713 37.9294H11.6189C14.9906 37.9294 14.7172 34.957 17.8094 34.957C20.9015 34.957 20.6281 37.9294 23.9999 37.9294C27.3716 37.9294 27.0982 34.957 30.1903 34.957C33.2825 34.957 33.0091 37.9294 36.3809 37.9294H37.9284" stroke="#2E8361" stroke-width="2" stroke-linecap="round" stroke-linejoin="round"/>
</g>
<defs>
<clipPath id="clip0_13907_10792">
<rect width="30" height="30" fill="white" transform="translate(9 9)"/>
</clipPath>
</defs>
</svg>
