<svg width="48" height="48" viewBox="0 0 48 48" fill="none" xmlns="http://www.w3.org/2000/svg">
<rect width="48" height="48" fill="#DBF4A9"/>
<g clip-path="url(#clip0_13907_10801)">
<path d="M23.7236 12.7334C24.892 11.565 26.2996 11.6177 27.6558 12.8703C27.9205 13.1148 28.186 13.3625 28.4519 13.613C28.4942 13.5644 28.5396 13.5159 28.5879 13.4676C29.8055 12.25 31.5028 13.5444 32.4799 14.5214C33.4569 15.4985 34.7513 17.1958 33.5337 18.4134C33.4855 18.4617 33.4369 18.507 33.3883 18.5494C33.6388 18.8153 33.8865 19.0808 34.1308 19.3454C35.3835 20.7017 35.4362 22.1093 34.268 23.2776C33.0996 24.446 31.6919 24.3933 30.3356 23.1406C28.1419 21.1145 25.8867 18.8593 23.8606 16.6656C22.6079 15.3093 22.5552 13.9017 23.7236 12.7334Z" stroke="#2E8361" stroke-width="1.66667" stroke-linecap="round" stroke-linejoin="round"/>
<path d="M12.7353 23.7216C11.5669 24.89 11.6197 26.2976 12.8723 27.6539C13.1167 27.9186 13.3645 28.1841 13.6151 28.45C13.5665 28.4923 13.5181 28.5375 13.47 28.5857C12.2524 29.8034 13.5467 31.5007 14.5238 32.4776C15.5009 33.4548 17.1982 34.7491 18.4158 33.5316C18.464 33.4834 18.5092 33.435 18.5515 33.3864C18.8173 33.6369 19.0828 33.8846 19.3473 34.1289C20.7036 35.3816 22.1112 35.4342 23.2796 34.2659C24.448 33.0975 24.3952 31.69 23.1426 30.3337C21.1165 28.1399 18.8613 25.8847 16.6676 23.8586C15.3113 22.606 13.9037 22.5533 12.7353 23.7216Z" stroke="#2E8361" stroke-width="1.66667" stroke-linecap="round" stroke-linejoin="round"/>
<path d="M24.8783 17.7539C26.2817 19.2326 27.7665 20.7175 29.2452 22.1209C28.5593 22.3654 28.0868 22.5379 27.5892 22.8085C26.8903 23.1886 26.1439 23.772 24.8108 25.1051C23.4777 26.4382 22.8943 27.1847 22.5142 27.8835C22.3053 28.2676 22.1548 28.6368 21.9846 29.1007C20.6674 27.7177 19.2815 26.3317 17.8984 25.0146C18.3624 24.8443 18.7315 24.6939 19.1157 24.485C19.8145 24.1049 20.561 23.5215 21.894 22.1884C23.2271 20.8553 23.8105 20.1089 24.1907 19.41C24.4613 18.9124 24.6338 18.4399 24.8783 17.7539Z" stroke="#2E8361" stroke-width="1.66667" stroke-linecap="round" stroke-linejoin="round"/>
</g>
<defs>
<clipPath id="clip0_13907_10801">
<rect width="25" height="25" fill="white" transform="translate(11 11)"/>
</clipPath>
</defs>
</svg>
