<svg width="48" height="48" viewBox="0 0 48 48" fill="none" xmlns="http://www.w3.org/2000/svg">
<rect width="48" height="48" fill="#DBF4A9"/>
<path d="M15 34V14" stroke="#2E8361" stroke-width="1.66" stroke-linecap="round" stroke-linejoin="round"/>
<path d="M32.332 34V14" stroke="#2E8361" stroke-width="1.66" stroke-linecap="round" stroke-linejoin="round"/>
<path d="M32.3333 16H15" stroke="#2E8361" stroke-width="1.66" stroke-linecap="round" stroke-linejoin="round"/>
<path d="M20.332 16V22" stroke="#2E8361" stroke-width="1.66" stroke-linecap="round" stroke-linejoin="round"/>
<path d="M18.332 24C18.332 24.2626 18.3838 24.5227 18.4843 24.7654C18.5848 25.008 18.7321 25.2285 18.9178 25.4142C19.1035 25.5999 19.324 25.7472 19.5667 25.8478C19.8093 25.9483 20.0694 26 20.332 26C20.5947 26 20.8547 25.9483 21.0974 25.8478C21.34 25.7472 21.5605 25.5999 21.7462 25.4142C21.932 25.2285 22.0793 25.008 22.1798 24.7654C22.2803 24.5227 22.332 24.2626 22.332 24C22.332 23.7374 22.2803 23.4773 22.1798 23.2346C22.0793 22.992 21.932 22.7715 21.7462 22.5858C21.5605 22.4001 21.34 22.2528 21.0974 22.1522C20.8547 22.0517 20.5947 22 20.332 22C20.0694 22 19.8093 22.0517 19.5667 22.1522C19.324 22.2528 19.1035 22.4001 18.9178 22.5858C18.7321 22.7715 18.5848 22.992 18.4843 23.2346C18.3838 23.4773 18.332 23.7374 18.332 24Z" stroke="#2E8361" stroke-width="1.66" stroke-linecap="round" stroke-linejoin="round"/>
<path d="M27 16V22" stroke="#2E8361" stroke-width="1.66" stroke-linecap="round" stroke-linejoin="round"/>
<path d="M25 24C25 24.5304 25.2107 25.0391 25.5858 25.4142C25.9609 25.7893 26.4696 26 27 26C27.5304 26 28.0391 25.7893 28.4142 25.4142C28.7893 25.0391 29 24.5304 29 24C29 23.4696 28.7893 22.9609 28.4142 22.5858C28.0391 22.2107 27.5304 22 27 22C26.4696 22 25.9609 22.2107 25.5858 22.5858C25.2107 22.9609 25 23.4696 25 24Z" stroke="#2E8361" stroke-width="1.66" stroke-linecap="round" stroke-linejoin="round"/>
</svg>
