<svg width="130" height="26" viewBox="0 0 130 26" fill="none" xmlns="http://www.w3.org/2000/svg">
<g clip-path="url(#clip0_14157_17536)">
<path d="M2.92712 24.2253C9.33317 24.2253 11.7866 21.1802 11.7866 15.9782" stroke="#2E8361" stroke-width="3.06586"/>
<path d="M21.6 9.0633H2.99524C15.9663 9.90367 20.4415 16.232 20.4415 25.05" stroke="#2E8361" stroke-width="3.06586"/>
<circle cx="12.2977" cy="2.98518" r="2.50837" fill="#2E8361"/>
<path d="M50.4069 21.5668H47.2869L45.7029 17.5348H37.5909L36.0069 21.5668H32.8869L39.7509 4.76679H43.5669L50.4069 21.5668ZM44.8149 15.2548L41.6469 7.19079L38.4789 15.2548H44.8149ZM56.5212 21.5668C55.2892 21.5668 54.4012 21.3188 53.8572 20.8228C53.3132 20.3108 53.0412 19.4788 53.0412 18.3268V11.8468H50.6412V9.56679H51.9612C52.4412 9.56679 52.7852 9.47079 52.9932 9.27879C53.2012 9.08679 53.3372 8.74279 53.4012 8.24679L53.6412 6.20679H55.6812V9.56679H59.0412V11.8468H55.6812V17.9668C55.6812 18.4308 55.7852 18.7668 55.9932 18.9748C56.2012 19.1828 56.5372 19.2868 57.0012 19.2868H59.0412V21.5668H56.5212ZM60.8328 3.32679H63.4728V11.8228C63.8888 11.0068 64.4728 10.3908 65.2248 9.97479C65.9928 9.54279 66.8888 9.32679 67.9128 9.32679C69.3528 9.32679 70.4728 9.81479 71.2728 10.7908C72.0728 11.7508 72.4728 13.0628 72.4728 14.7268V21.5668H69.8328V15.0868C69.8328 14.0308 69.5688 13.1908 69.0408 12.5668C68.5288 11.9268 67.7928 11.6068 66.8328 11.6068C65.8248 11.6068 65.0088 11.9348 64.3848 12.5908C63.7768 13.2308 63.4728 14.0628 63.4728 15.0868V21.5668H60.8328V3.32679ZM77.8784 3.32679V21.5668H75.2384V3.32679H77.8784ZM80.1294 15.5668C80.1294 14.3348 80.3934 13.2468 80.9214 12.3028C81.4494 11.3588 82.1854 10.6308 83.1294 10.1188C84.0894 9.59079 85.1694 9.32679 86.3694 9.32679C87.5694 9.32679 88.6414 9.59079 89.5854 10.1188C90.5454 10.6308 91.2894 11.3588 91.8174 12.3028C92.3454 13.2468 92.6094 14.3348 92.6094 15.5668V16.1668H82.8174C82.9294 17.1908 83.3134 18.0068 83.9694 18.6148C84.6254 19.2228 85.4254 19.5268 86.3694 19.5268C87.8094 19.5268 88.8414 18.9668 89.4654 17.8468H92.2494C91.8494 19.0788 91.1374 20.0468 90.1134 20.7508C89.1054 21.4548 87.8574 21.8068 86.3694 21.8068C85.1694 21.8068 84.0894 21.5508 83.1294 21.0388C82.1854 20.5108 81.4494 19.7748 80.9214 18.8308C80.3934 17.8868 80.1294 16.7988 80.1294 15.5668ZM89.9214 14.6308C89.7934 13.7028 89.4014 12.9668 88.7454 12.4228C88.1054 11.8788 87.3134 11.6068 86.3694 11.6068C85.4894 11.6068 84.7214 11.8868 84.0654 12.4468C83.4254 12.9908 83.0254 13.7268 82.8654 14.6548L89.9214 14.6308ZM99.32 21.5668C98.088 21.5668 97.2 21.3188 96.656 20.8228C96.112 20.3108 95.84 19.4788 95.84 18.3268V11.8468H93.44V9.56679H94.76C95.24 9.56679 95.584 9.47079 95.792 9.27879C96 9.08679 96.136 8.74279 96.2 8.24679L96.44 6.20679H98.48V9.56679H101.84V11.8468H98.48V17.9668C98.48 18.4308 98.584 18.7668 98.792 18.9748C99 19.1828 99.336 19.2868 99.8 19.2868H101.84V21.5668H99.32ZM106.416 9.56679V21.5668H103.776V9.56679H106.416ZM105.096 3.32679C105.544 3.32679 105.92 3.47879 106.224 3.78279C106.544 4.08679 106.704 4.45479 106.704 4.88679C106.704 5.31879 106.544 5.68679 106.224 5.99079C105.92 6.29479 105.544 6.44679 105.096 6.44679C104.648 6.44679 104.264 6.29479 103.944 5.99079C103.624 5.68679 103.464 5.31879 103.464 4.88679C103.464 4.45479 103.624 4.08679 103.944 3.78279C104.264 3.47879 104.648 3.32679 105.096 3.32679ZM121.241 17.2468C120.937 18.6548 120.241 19.7668 119.153 20.5828C118.081 21.3988 116.753 21.8068 115.169 21.8068C113.889 21.8068 112.753 21.5508 111.761 21.0388C110.785 20.5108 110.025 19.7748 109.481 18.8308C108.953 17.8868 108.689 16.7988 108.689 15.5668C108.689 14.3348 108.953 13.2468 109.481 12.3028C110.025 11.3588 110.785 10.6308 111.761 10.1188C112.753 9.59079 113.889 9.32679 115.169 9.32679C116.753 9.32679 118.081 9.73479 119.153 10.5508C120.241 11.3668 120.937 12.4788 121.241 13.8868H118.529C118.289 13.1668 117.873 12.6068 117.281 12.2068C116.689 11.8068 115.985 11.6068 115.169 11.6068C114.017 11.6068 113.089 11.9748 112.385 12.7108C111.681 13.4308 111.329 14.3828 111.329 15.5668C111.329 16.7508 111.681 17.7108 112.385 18.4468C113.089 19.1668 114.017 19.5268 115.169 19.5268C116.001 19.5268 116.713 19.3268 117.305 18.9268C117.897 18.5268 118.313 17.9668 118.553 17.2468H121.241Z" fill="#245240"/>
</g>
<defs>
<clipPath id="clip0_14157_17536">
<rect width="130" height="26" fill="white"/>
</clipPath>
</defs>
</svg>
